HIERARCHY
ROOT Hips
{
  OFFSET 5.84602e-005 68.8428 3.50346
  CHANNELS 6 Xposition Yposition Zposition Zrotation Xrotation Yrotation
  JOINT Spine
  {
    OFFSET 0 8.597 -4.6522
    CHANNELS 3 Zrotation Xrotation Yrotation
    JOINT Spine1
    {
      OFFSET 0 7.8454 0.4098
      CHANNELS 3 Zrotation Xrotation Yrotation
      JOINT Spine2
      {
        OFFSET 0 9.7078 -2.1609
        CHANNELS 3 Zrotation Xrotation Yrotation
        JOINT Neck
        {
          OFFSET 0 21.8761 -0.4549
          CHANNELS 3 Zrotation Xrotation Yrotation
          JOINT Head
          {
            OFFSET 0 12.3537 3.3602
            CHANNELS 3 Zrotation Xrotation Yrotation
            End Site
            {
              OFFSET 0.0001 18.9506 0.5657
            }
          }
        }
        JOINT LeftShoulder
        {
          OFFSET 2.2086 21.1115 7.2329
          CHANNELS 3 Zrotation Xrotation Yrotation
          JOINT LeftArm
          {
            OFFSET 13.1193 3.0282 -4.8998
            CHANNELS 3 Zrotation Xrotation Yrotation
            JOINT LeftForeArm
            {
              OFFSET 27.4081 -0.0973053 -0.2375
              CHANNELS 3 Zrotation Xrotation Yrotation
              JOINT LeftHand
              {
                OFFSET 22.8641 0.0662994 -0.1369
                CHANNELS 3 Zrotation Xrotation Yrotation
                JOINT LeftHandIndex1
                {
                  OFFSET 8.8614 0.775009 2.4612
                  CHANNELS 3 Zrotation Xrotation Yrotation
                  JOINT LeftHandIndex2
                  {
                    OFFSET 3.3146 -0.808304 0.5841
                    CHANNELS 3 Zrotation Xrotation Yrotation
                    JOINT LeftHandIndex3
                    {
                      OFFSET 2.2628 -0.552002 0.3989
                      CHANNELS 3 Zrotation Xrotation Yrotation
                      End Site
                      {
                        OFFSET 1.6102 -0.4807 0.2612
                      }
                    }
                  }
                }
                JOINT LeftHandMiddle1
                {
                  OFFSET 8.9937 0.895004 0.2143
                  CHANNELS 3 Zrotation Xrotation Yrotation
                  JOINT LeftHandMiddle2
                  {
                    OFFSET 4.0984 0.0113983 -0.0242
                    CHANNELS 3 Zrotation Xrotation Yrotation
                    JOINT LeftHandMiddle3
                    {
                      OFFSET 2.2716 0.00689697 -0.0138001
                      CHANNELS 3 Zrotation Xrotation Yrotation
                      End Site
                      {
                        OFFSET 2.0404 -0.1441 0.0027
                      }
                    }
                  }
                }
                JOINT LeftHandRing1
                {
                  OFFSET 8.5234 0.597198 -2.0164
                  CHANNELS 3 Zrotation Xrotation Yrotation
                  JOINT LeftHandRing2
                  {
                    OFFSET 3.7188 -0.188293 -0.2328
                    CHANNELS 3 Zrotation Xrotation Yrotation
                    JOINT LeftHandRing3
                    {
                      OFFSET 2.1191 -0.106598 -0.1332
                      CHANNELS 3 Zrotation Xrotation Yrotation
                      End Site
                      {
                        OFFSET 1.8737 -0.2304 -0.0886
                      }
                    }
                  }
                }
                JOINT LeftHandPinky1
                {
                  OFFSET 7.9094 -0.601089 -3.4825
                  CHANNELS 3 Zrotation Xrotation Yrotation
                  JOINT LeftHandPinky2
                  {
                    OFFSET 2.2874 -0.477005 -0.6314
                    CHANNELS 3 Zrotation Xrotation Yrotation
                    JOINT LeftHandPinky3
                    {
                      OFFSET 1.6774 -0.349396 -0.4633
                      CHANNELS 3 Zrotation Xrotation Yrotation
                      End Site
                      {
                        OFFSET 1.4888 -0.4091 -0.3416
                      }
                    }
                  }
                }
                JOINT LeftHandThumb1
                {
                  OFFSET 1.833 -1.3875 1.3896
                  CHANNELS 3 Zrotation Xrotation Yrotation
                  JOINT LeftHandThumb2
                  {
                    OFFSET 3.4129 -1.121 2.5732
                    CHANNELS 3 Zrotation Xrotation Yrotation
                    JOINT LeftHandThumb3
                    {
                      OFFSET 2.2474 -0.804199 1.6192
                      CHANNELS 3 Zrotation Xrotation Yrotation
                      End Site
                      {
                        OFFSET 1.6527 -0.5689 1.1317
                      }
                    }
                  }
                }
              }
            }
          }
        }
        JOINT RightShoulder
        {
          OFFSET -2.2086 21.1115 7.2329
          CHANNELS 3 Zrotation Xrotation Yrotation
          JOINT RightArm
          {
            OFFSET -13.1216 3.0287 -4.9007
            CHANNELS 3 Zrotation Xrotation Yrotation
            JOINT RightForeArm
            {
              OFFSET -27.4081 -0.0973053 -0.2375
              CHANNELS 3 Zrotation Xrotation Yrotation
              JOINT RightHand
              {
                OFFSET -22.8641 0.0664063 -0.1369
                CHANNELS 3 Zrotation Xrotation Yrotation
                JOINT RightHandIndex1
                {
                  OFFSET -8.8614 0.774994 2.4612
                  CHANNELS 3 Zrotation Xrotation Yrotation
                  JOINT RightHandIndex2
                  {
                    OFFSET -3.3146 -0.808304 0.5841
                    CHANNELS 3 Zrotation Xrotation Yrotation
                    JOINT RightHandIndex3
                    {
                      OFFSET -2.2628 -0.552002 0.3989
                      CHANNELS 3 Zrotation Xrotation Yrotation
                      End Site
                      {
                        OFFSET -1.6102 -0.4807 0.2612
                      }
                    }
                  }
                }
                JOINT RightHandMiddle1
                {
                  OFFSET -8.9937 0.894989 0.2143
                  CHANNELS 3 Zrotation Xrotation Yrotation
                  JOINT RightHandMiddle2
                  {
                    OFFSET -4.0984 0.0113983 -0.0242
                    CHANNELS 3 Zrotation Xrotation Yrotation
                    JOINT RightHandMiddle3
                    {
                      OFFSET -2.2716 0.00691223 -0.0138001
                      CHANNELS 3 Zrotation Xrotation Yrotation
                      End Site
                      {
                        OFFSET -2.0404 -0.1441 0.0027
                      }
                    }
                  }
                }
                JOINT RightHandRing1
                {
                  OFFSET -8.5234 0.597198 -2.0164
                  CHANNELS 3 Zrotation Xrotation Yrotation
                  JOINT RightHandRing2
                  {
                    OFFSET -3.7188 -0.188309 -0.2328
                    CHANNELS 3 Zrotation Xrotation Yrotation
                    JOINT RightHandRing3
                    {
                      OFFSET -2.1191 -0.106598 -0.1332
                      CHANNELS 3 Zrotation Xrotation Yrotation
                      End Site
                      {
                        OFFSET -1.8737 -0.2304 -0.0886
                      }
                    }
                  }
                }
                JOINT RightHandPinky1
                {
                  OFFSET -7.9094 -0.601105 -3.4825
                  CHANNELS 3 Zrotation Xrotation Yrotation
                  JOINT RightHandPinky2
                  {
                    OFFSET -2.2874 -0.477005 -0.6314
                    CHANNELS 3 Zrotation Xrotation Yrotation
                    JOINT RightHandPinky3
                    {
                      OFFSET -1.6774 -0.349396 -0.4633
                      CHANNELS 3 Zrotation Xrotation Yrotation
                      End Site
                      {
                        OFFSET -1.4888 -0.4091 -0.3416
                      }
                    }
                  }
                }
                JOINT RightHandThumb1
                {
                  OFFSET -1.833 -1.38751 1.3896
                  CHANNELS 3 Zrotation Xrotation Yrotation
                  JOINT RightHandThumb2
                  {
                    OFFSET -3.41299 -1.12099 2.5732
                    CHANNELS 3 Zrotation Xrotation Yrotation
                    JOINT RightHandThumb3
                    {
                      OFFSET -2.24741 -0.804108 1.6192
                      CHANNELS 3 Zrotation Xrotation Yrotation
                      End Site
                      {
                        OFFSET -1.6527 -0.5689 1.1317
                      }
                    }
                  }
                }
              }
            }
          }
        }
      }
    }
  }
  JOINT RightUpLeg
  {
    OFFSET -9.1966 3.8861 -0.7581
    CHANNELS 3 Zrotation Xrotation Yrotation
    JOINT RightLeg
    {
      OFFSET -0.7359 -41.0265 0
      CHANNELS 3 Zrotation Xrotation Yrotation
      JOINT RightFoot
      {
        OFFSET 0 -40.2855 0
        CHANNELS 3 Zrotation Xrotation Yrotation
        JOINT RightToeBase
        {
          OFFSET 0 -5.6122 11.7359
          CHANNELS 3 Zrotation Xrotation Yrotation
          End Site
          {
            OFFSET 0 0 7.8731
          }
        }
      }
    }
  }
  JOINT LeftUpLeg
  {
    OFFSET 9.1965 3.8864 -0.7581
    CHANNELS 3 Zrotation Xrotation Yrotation
    JOINT LeftLeg
    {
      OFFSET 0.7359 -41.0268 0
      CHANNELS 3 Zrotation Xrotation Yrotation
      JOINT LeftFoot
      {
        OFFSET 0 -40.2855 0
        CHANNELS 3 Zrotation Xrotation Yrotation
        JOINT LeftToeBase
        {
          OFFSET 0 -5.6122 11.7359
          CHANNELS 3 Zrotation Xrotation Yrotation
          End Site
          {
            OFFSET 0 0 7.8731
          }
        }
      }
    }
  }
}
MOTION
Frames:	5
Frame Time:	0.0333333
-0.558408 -3.40141 51.2635 -0.348423 -80.7615 -175.618 3.66118 1.26509 3.00743 7.25396 2.71788 5.93038 7.25396 2.71787 5.93038 -10.1506 9.83587 23.7501 -6.02429 4.96816 36.242 4.27762 -38.6373 26.8841 -114.965 7.61855 67.9534 16.4179 11.7639 -64.7795 47.5112 -71.9799 38.3791 3.18055e-015 -4.77083e-015 4.77083e-015 3.18055e-015 -4.77083e-015 1.59028e-015 1.76556e-031 -6.36111e-015 1.59028e-015 3.18055e-015 -4.77083e-015 4.77083e-015 -0.0145718 -8.73038e-005 1.21593e-006 9.54166e-015 4.77083e-015 3.18055e-015 3.18055e-015 -4.77083e-015 4.77083e-015 -0.0187748 -0.00117942 5.47992e-005 -1.27222e-014 -3.18055e-015 -0 3.18055e-015 -4.77083e-015 4.77083e-015 -0.0122505 -0.00324346 0.000671603 -3.18055e-015 0 -0 3.18055e-015 -4.77083e-015 4.77083e-015 3.18055e-015 -4.77083e-015 1.59028e-015 1.76556e-031 -6.36111e-015 1.59028e-015 -30.8519 -41.6357 -29.7123 54.6712 4.27031 43.8914 -0.577879 16.1131 120.212 -29.4799 7.96822 -34.8852 -1.59028e-015 1.2921e-015 -0 0 1.2921e-015 -0 -7.95139e-016 -1.78906e-015 -0 -1.59028e-015 1.2921e-015 -0 0.0149951 -9.12038e-005 3.73163e-006 1.59028e-015 -4.47266e-015 -7.95139e-016 -1.59028e-015 1.2921e-015 -0 0.0190151 -0.00119374 -5.98215e-005 -1.59028e-015 -1.88845e-015 7.95139e-016 -1.59028e-015 1.2921e-015 -0 0.0122762 -0.00325365 -0.000673652 -1.18624e-031 -4.27387e-015 -1.59028e-015 -1.59028e-015 1.2921e-015 -0 0 1.2921e-015 -0 -7.95139e-016 -1.78906e-015 -0 -5.5134 -2.98502 0.7915 4.05141 26.2102 -4.75637 -16.4747 32.716 12.4029 -0 0 1.59028e-015 4.83017 -0.368951 0.800823 2.40192 20.3682 -0.646296 15.1924 16.8508 0.527309 7.21798e-007 -1.48708e-007 -4.26983e-007 
-0.556858 -3.3971 51.2671 -0.344464 -80.806 -175.639 3.66118 1.26505 3.00742 7.25396 2.71788 5.93038 7.25396 2.71788 5.93038 -10.1506 9.83578 23.7501 -6.0242 4.96811 36.5221 4.21041 -38.5767 26.7709 -115.202 7.94095 67.3963 16.2312 12.0442 -64.0991 45.4986 -71.3418 36.7358 1.9348e-006 2.61239e-006 9.03256e-007 4.33001e-006 2.2342e-006 -9.17091e-006 7.16991e-007 1.21614e-007 -1.43171e-006 1.9348e-006 2.61239e-006 9.03256e-007 -0.0145953 -8.8699e-005 -6.38703e-006 7.15683e-007 1.21788e-007 -1.43169e-006 1.9348e-006 2.61239e-006 9.03256e-007 -0.0187451 -0.00117614 5.29375e-005 7.15297e-007 1.21743e-007 -1.43169e-006 1.9348e-006 2.61239e-006 9.03256e-007 -0.0122696 -0.00325152 0.000671795 -6.36111e-015 -3.18055e-015 -1.59028e-015 1.9348e-006 2.61239e-006 9.03256e-007 4.33001e-006 2.2342e-006 -9.17091e-006 7.16991e-007 1.21614e-007 -1.43171e-006 -30.7744 -41.5474 -29.6055 54.6696 4.25784 43.8858 -0.574666 16.1094 120.191 -29.4799 7.9682 -34.8852 -7.95139e-016 1.68967e-015 2.38542e-015 -0 -1.49089e-015 -0 2.34489e-032 1.68967e-015 -7.95139e-016 -7.95139e-016 1.68967e-015 2.38542e-015 0.0149877 -9.09795e-005 2.14313e-006 -7.95139e-016 3.67752e-015 -0 -7.95139e-016 1.68967e-015 2.38542e-015 0.0189918 -0.00118932 -6.07582e-005 7.95139e-016 -3.97569e-016 7.95139e-016 -7.95139e-016 1.68967e-015 2.38542e-015 0.0122699 -0.00324182 -0.000672418 -7.1726e-032 5.1684e-015 7.95139e-016 -7.95139e-016 1.68967e-015 2.38542e-015 -0 -1.49089e-015 -0 2.34489e-032 1.68967e-015 -7.95139e-016 -5.52089 -2.98905 0.795462 4.05141 26.2102 -4.75646 -16.4748 32.7157 12.4029 6.36111e-015 3.18055e-015 -0 4.83003 -0.369372 0.800813 2.40191 20.3676 -0.646352 15.1926 16.8517 0.527155 8.53462e-007 1.18902e-007 1.4439e-006 
-0.555334 -3.39285 51.2705 -0.340683 -80.85 -175.659 3.66118 1.26508 3.00742 7.25396 2.71787 5.93038 7.25396 2.71788 5.93038 -10.1506 9.83575 23.7502 -6.02414 4.96805 36.8022 4.14339 -38.5159 26.6578 -115.436 8.26575 66.8401 16.0408 12.3224 -63.4171 43.6067 -70.6863 35.2139 9.68514e-007 1.30376e-006 4.65737e-007 -8.7507e-007 -2.85083e-006 9.0891e-006 9.68514e-007 1.30376e-006 4.65737e-007 9.68514e-007 1.30376e-006 4.65737e-007 -0.0146207 -8.89648e-005 1.41054e-006 9.68482e-007 1.3037e-006 4.65903e-007 9.68514e-007 1.30376e-006 4.65737e-007 -0.018763 -0.00117843 6.49252e-005 9.68479e-007 1.30368e-006 4.65941e-007 9.68514e-007 1.30376e-006 4.65737e-007 -0.012284 -0.0032524 0.000684291 2.10784e-006 2.05048e-006 -2.03905e-006 9.68514e-007 1.30376e-006 4.65737e-007 -8.7507e-007 -2.85083e-006 9.0891e-006 9.68514e-007 1.30376e-006 4.65737e-007 -30.6972 -41.4589 -29.499 54.668 4.24536 43.8802 -0.571478 16.1058 120.171 -29.4799 7.9682 -34.8852 -1.28597e-006 8.06662e-008 7.9344e-007 1.03368e-014 6.55989e-015 -1.27222e-014 7.95139e-015 -9.93923e-016 -1.03368e-014 -1.28597e-006 8.06662e-008 7.9344e-007 0.0150092 -8.72605e-005 3.01464e-006 -2.38542e-015 -4.96962e-016 -3.18055e-015 -1.28597e-006 8.06662e-008 7.9344e-007 0.0190154 -0.00119408 -5.94194e-005 -1.28394e-006 8.06698e-008 7.93434e-007 -1.28597e-006 8.06662e-008 7.9344e-007 0.0122658 -0.0032506 -0.000676999 -1.59028e-015 -3.37934e-015 -0 -1.28597e-006 8.06662e-008 7.9344e-007 1.03368e-014 6.55989e-015 -1.27222e-014 7.95139e-015 -9.93923e-016 -1.03368e-014 -5.52839 -2.99316 0.799423 4.05143 26.2103 -4.75657 -16.4749 32.7153 12.4028 -1.40553e-007 6.25926e-006 1.34683e-006 4.82989 -0.370129 0.800793 2.40192 20.3678 -0.64637 15.1928 16.8523 0.527045 -2.13999e-006 4.35172e-006 1.59464e-007 
-0.553833 -3.38867 51.274 -0.337026 -80.8933 -175.678 3.66116 1.26496 3.00743 7.25397 2.71788 5.93039 7.25397 2.71789 5.93038 -10.1506 9.83636 23.7501 -6.02405 4.96799 37.0824 4.07654 -38.455 26.5449 -115.667 8.59271 66.2846 15.8469 12.5984 -62.7332 41.8264 -70.0152 33.8044 1.76556e-031 1.59028e-015 -6.36111e-015 7.33213e-007 3.621e-007 -1.30664e-006 6.36111e-015 9.54166e-015 -6.36111e-015 1.76556e-031 1.59028e-015 -6.36111e-015 -0.0146373 -9.25481e-005 2.29366e-006 3.18055e-015 7.95139e-015 -0 1.76556e-031 1.59028e-015 -6.36111e-015 -0.018766 -0.00117431 4.6602e-005 -9.54166e-015 1.11319e-014 -0 1.76556e-031 1.59028e-015 -6.36111e-015 -0.0122394 -0.00324088 0.000678705 1.18752e-006 5.57916e-007 -2.57113e-006 1.76556e-031 1.59028e-015 -6.36111e-015 7.33213e-007 3.621e-007 -1.30664e-006 6.36111e-015 9.54166e-015 -6.36111e-015 -30.6203 -41.3704 -29.3928 54.6664 4.23288 43.8746 -0.568245 16.1021 120.151 -29.4799 7.9682 -34.8852 -1.91346e-006 -1.96327e-006 1.61167e-006 -4.98163e-008 3.87673e-006 -3.66829e-007 -1.91346e-006 -1.96327e-006 1.61167e-006 -1.91346e-006 -1.96327e-006 1.61167e-006 0.0149844 -8.42239e-005 1.82742e-006 -1.91362e-006 -1.96306e-006 1.61193e-006 -1.91346e-006 -1.96327e-006 1.61167e-006 0.0190223 -0.00118561 -6.50913e-005 -1.91364e-006 -1.96299e-006 1.61202e-006 -1.91346e-006 -1.96327e-006 1.61167e-006 0.012264 -0.00324202 -0.000666921 -1.91353e-006 -1.96308e-006 1.61194e-006 -1.91346e-006 -1.96327e-006 1.61167e-006 -4.98163e-008 3.87673e-006 -3.66829e-007 -1.91346e-006 -1.96327e-006 1.61167e-006 -5.5359 -2.99739 0.803387 4.05148 26.2108 -4.75673 -16.475 32.7148 12.4028 6.36111e-015 -3.18055e-015 -3.18055e-015 4.82975 -0.370671 0.800781 2.40191 20.3675 -0.646415 15.193 16.8532 0.526905 -5.4041e-007 1.63623e-006 -2.25086e-006 
-0.552353 -3.38452 51.2774 -0.333282 -80.9361 -175.698 3.66117 1.26506 3.00742 7.25396 2.71788 5.93038 7.25396 2.71788 5.93038 -10.1506 9.83579 23.7502 -6.02396 4.96793 37.3625 4.00996 -38.3941 26.4322 -115.895 8.92194 65.7301 15.6494 12.8721 -62.0477 40.1495 -69.3301 32.4991 4.31562e-006 -9.23029e-007 -2.81492e-006 1.86553e-006 3.3081e-006 -1.03177e-005 3.23595e-006 2.36215e-007 -9.74585e-006 4.31562e-006 -9.23029e-007 -2.81492e-006 -0.0146105 -8.81283e-005 -2.68819e-006 3.236e-006 2.37458e-007 -9.74582e-006 4.31562e-006 -9.23029e-007 -2.81492e-006 -0.0187539 -0.00117273 5.88999e-005 3.23593e-006 2.37813e-007 -9.74584e-006 4.31562e-006 -9.23029e-007 -2.81492e-006 -0.012243 -0.0032411 0.000674326 3.23573e-006 2.37249e-007 -9.74592e-006 4.31562e-006 -9.23029e-007 -2.81492e-006 1.86553e-006 3.3081e-006 -1.03177e-005 3.23595e-006 2.36215e-007 -9.74585e-006 -30.5437 -41.2817 -29.2869 54.6649 4.22042 43.8689 -0.56504 16.0984 120.13 -29.4799 7.96822 -34.8852 7.95139e-016 -3.97569e-016 1.59028e-015 7.95139e-016 -3.67752e-015 7.95139e-016 1.59028e-015 -2.98177e-016 7.95139e-016 7.95139e-016 -3.97569e-016 1.59028e-015 0.0149822 -8.47787e-005 2.36918e-006 1.59028e-015 9.93923e-016 3.18055e-015 7.95139e-016 -3.97569e-016 1.59028e-015 0.0189829 -0.0011869 -5.98741e-005 -7.95139e-016 0 2.38542e-015 7.95139e-016 -3.97569e-016 1.59028e-015 0.0122793 -0.00325195 -0.000673622 -1.51728e-031 -5.46658e-015 -1.59028e-015 7.95139e-016 -3.97569e-016 1.59028e-015 7.95139e-016 -3.67752e-015 7.95139e-016 1.59028e-015 -2.98177e-016 7.95139e-016 -5.5434 -3.00142 0.807346 4.05148 26.2108 -4.75682 -16.4751 32.7144 12.4028 -2.94885e-007 3.21972e-006 8.00197e-008 4.82962 -0.371308 0.800766 2.40191 20.3674 -0.646443 15.1931 16.8538 0.526789 -8.52587e-007 -3.42658e-006 -3.50117e-006 
